<?xml version="1.0" standalone="no"?>
<svg version="1.0" xmlns="http://www.w3.org/2000/svg"
 width="297.000000pt" height="297.000000pt" viewBox="0 0 297.000000 297.000000"
 preserveAspectRatio="xMidYMid meet">
<g transform="translate(0.000000,297.000000) scale(0.100000,-0.100000)"
fill="#000000" stroke="none">
<path d="M1345 2863 c-196 -25 -323 -62 -480 -138 -293 -142 -508 -363 -649
-667 -49 -106 -77 -193 -103 -323 -24 -123 -24 -367 0 -490 59 -297 193 -546
402 -747 58 -56 213 -178 226 -178 10 0 124 178 284 440 76 124 146 237 157
252 l19 28 -286 0 c-267 0 -286 1 -283 18 2 13 17 18 63 23 67 6 98 21 117 58
20 38 19 1197 -2 1235 -18 36 -59 56 -109 56 -50 0 -71 8 -71 27 0 13 51 14
393 10 335 -3 401 -6 452 -21 210 -61 332 -193 343 -371 l4 -70 -103 -179
c-95 -163 -108 -181 -145 -197 -62 -28 -126 -39 -279 -47 l-140 -7 1 -205 c0
-146 4 -212 13 -228 27 -49 123 -81 149 -49 5 6 76 127 157 267 80 140 151
259 156 265 5 5 9 -204 9 -546 0 -536 1 -557 19 -573 47 -43 185 -37 274 11
88 48 159 163 194 313 26 109 26 433 0 543 -24 100 -84 220 -139 276 -62 63
-106 81 -205 81 l-82 0 73 113 c114 177 341 539 360 574 9 18 45 70 80 117
l63 84 -76 46 c-164 99 -348 164 -541 191 -102 14 -242 18 -315 8z"/>
<path d="M2243 2510 c-32 -44 -135 -202 -228 -351 -94 -149 -178 -281 -187
-292 -10 -11 -18 -23 -18 -27 0 -4 34 -10 75 -14 400 -36 645 -305 646 -707 1
-357 -169 -590 -501 -690 -72 -22 -93 -23 -508 -27 -414 -3 -434 -2 -430 15 2
14 16 19 63 23 131 12 135 22 135 340 0 223 -2 251 -16 257 -9 3 -24 2 -32 -3
-8 -6 -78 -113 -154 -239 -77 -127 -180 -290 -228 -364 l-89 -133 102 -48
c207 -97 373 -134 602 -134 238 0 404 38 620 144 389 191 654 544 742 985 24
123 24 367 0 490 -64 322 -211 580 -451 792 -39 35 -74 63 -78 63 -4 0 -33
-36 -65 -80z m191 -446 c24 -31 66 -123 66 -146 0 -5 -26 -9 -57 -9 -32 -1
-71 -4 -86 -8 l-29 -6 21 -27 c26 -32 26 -44 4 -53 -13 -4 -26 3 -45 24 -17
19 -37 31 -53 31 -25 0 -55 40 -55 74 0 8 28 33 62 57 35 23 76 55 93 71 16
15 35 28 40 28 6 0 23 -16 39 -36z"/>
<path d="M1160 2025 l0 -365 53 0 c109 0 215 99 259 243 16 55 19 87 16 170
-3 93 -7 108 -38 165 -18 35 -48 75 -66 89 -46 35 -126 63 -179 63 l-45 0 0
-365z"/>
</g>
</svg>
